<svg width="176" height="19" viewBox="0 0 176 19" fill="none" xmlns="http://www.w3.org/2000/svg">
<path d="M16.5568 9.77273C16.5568 11.6761 16.196 13.2955 15.4744 14.6307C14.7585 15.9659 13.7813 16.9858 12.5426 17.6903C11.3097 18.3892 9.9233 18.7386 8.38352 18.7386C6.83239 18.7386 5.44034 18.3864 4.20739 17.6818C2.97443 16.9773 2 15.9574 1.28409 14.6222C0.568182 13.2869 0.210227 11.6705 0.210227 9.77273C0.210227 7.86932 0.568182 6.25 1.28409 4.91477C2 3.57955 2.97443 2.5625 4.20739 1.86364C5.44034 1.15909 6.83239 0.806818 8.38352 0.806818C9.9233 0.806818 11.3097 1.15909 12.5426 1.86364C13.7813 2.5625 14.7585 3.57955 15.4744 4.91477C16.196 6.25 16.5568 7.86932 16.5568 9.77273ZM12.8153 9.77273C12.8153 8.53977 12.6307 7.5 12.2614 6.65341C11.8977 5.80682 11.3835 5.16477 10.7188 4.72727C10.054 4.28977 9.27557 4.07102 8.38352 4.07102C7.49148 4.07102 6.71307 4.28977 6.0483 4.72727C5.38352 5.16477 4.86648 5.80682 4.49716 6.65341C4.13352 7.5 3.9517 8.53977 3.9517 9.77273C3.9517 11.0057 4.13352 12.0455 4.49716 12.892C4.86648 13.7386 5.38352 14.3807 6.0483 14.8182C6.71307 15.2557 7.49148 15.4744 8.38352 15.4744C9.27557 15.4744 10.054 15.2557 10.7188 14.8182C11.3835 14.3807 11.8977 13.7386 12.2614 12.892C12.6307 12.0455 12.8153 11.0057 12.8153 9.77273ZM30.8643 6.6875C30.745 6.27273 30.5774 5.90625 30.3615 5.58807C30.1456 5.2642 29.8814 4.99148 29.5689 4.76989C29.2621 4.54261 28.9098 4.36932 28.5121 4.25C28.12 4.13068 27.6854 4.07102 27.2081 4.07102C26.3161 4.07102 25.532 4.29261 24.8558 4.73579C24.1854 5.17898 23.6626 5.82386 23.2876 6.67045C22.9126 7.51136 22.7251 8.53977 22.7251 9.75568C22.7251 10.9716 22.9098 12.0057 23.2791 12.858C23.6484 13.7102 24.1712 14.3608 24.8473 14.8097C25.5234 15.2528 26.3217 15.4744 27.2422 15.4744C28.0774 15.4744 28.7905 15.3267 29.3814 15.0312C29.978 14.7301 30.4325 14.3068 30.745 13.7614C31.0632 13.2159 31.2223 12.571 31.2223 11.8267L31.9723 11.9375H27.4723V9.15909H34.7763V11.358C34.7763 12.892 34.4524 14.2102 33.8047 15.3125C33.157 16.4091 32.2649 17.2557 31.1286 17.8523C29.9922 18.4432 28.6911 18.7386 27.2251 18.7386C25.5888 18.7386 24.1513 18.3778 22.9126 17.6562C21.674 16.929 20.7081 15.8977 20.0149 14.5625C19.3274 13.2216 18.9837 11.6307 18.9837 9.78977C18.9837 8.375 19.1882 7.11364 19.5973 6.00568C20.0121 4.89205 20.5916 3.94886 21.3359 3.17614C22.0803 2.40341 22.9467 1.81534 23.9354 1.41193C24.924 1.00852 25.995 0.806818 27.1484 0.806818C28.1371 0.806818 29.0575 0.951704 29.9098 1.24148C30.7621 1.52557 31.5178 1.92898 32.1768 2.4517C32.8416 2.97443 33.3842 3.59659 33.8047 4.31818C34.2251 5.03409 34.495 5.82386 34.6143 6.6875H30.8643ZM53.5881 9.77273C53.5881 11.6761 53.2273 13.2955 52.5057 14.6307C51.7898 15.9659 50.8125 16.9858 49.5739 17.6903C48.3409 18.3892 46.9545 18.7386 45.4148 18.7386C43.8636 18.7386 42.4716 18.3864 41.2386 17.6818C40.0057 16.9773 39.0313 15.9574 38.3153 14.6222C37.5994 13.2869 37.2415 11.6705 37.2415 9.77273C37.2415 7.86932 37.5994 6.25 38.3153 4.91477C39.0313 3.57955 40.0057 2.5625 41.2386 1.86364C42.4716 1.15909 43.8636 0.806818 45.4148 0.806818C46.9545 0.806818 48.3409 1.15909 49.5739 1.86364C50.8125 2.5625 51.7898 3.57955 52.5057 4.91477C53.2273 6.25 53.5881 7.86932 53.5881 9.77273ZM49.8466 9.77273C49.8466 8.53977 49.6619 7.5 49.2926 6.65341C48.929 5.80682 48.4148 5.16477 47.75 4.72727C47.0852 4.28977 46.3068 4.07102 45.4148 4.07102C44.5227 4.07102 43.7443 4.28977 43.0795 4.72727C42.4148 5.16477 41.8977 5.80682 41.5284 6.65341C41.1648 7.5 40.983 8.53977 40.983 9.77273C40.983 11.0057 41.1648 12.0455 41.5284 12.892C41.8977 13.7386 42.4148 14.3807 43.0795 14.8182C43.7443 15.2557 44.5227 15.4744 45.4148 15.4744C46.3068 15.4744 47.0852 15.2557 47.75 14.8182C48.4148 14.3807 48.929 13.7386 49.2926 12.892C49.6619 12.0455 49.8466 11.0057 49.8466 9.77273ZM67.8956 6.6875C67.7763 6.27273 67.6087 5.90625 67.3928 5.58807C67.1768 5.2642 66.9126 4.99148 66.6001 4.76989C66.2933 4.54261 65.9411 4.36932 65.5433 4.25C65.1513 4.13068 64.7166 4.07102 64.2393 4.07102C63.3473 4.07102 62.5632 4.29261 61.8871 4.73579C61.2166 5.17898 60.6939 5.82386 60.3189 6.67045C59.9439 7.51136 59.7564 8.53977 59.7564 9.75568C59.7564 10.9716 59.9411 12.0057 60.3104 12.858C60.6797 13.7102 61.2024 14.3608 61.8786 14.8097C62.5547 15.2528 63.353 15.4744 64.2734 15.4744C65.1087 15.4744 65.8217 15.3267 66.4126 15.0312C67.0092 14.7301 67.4638 14.3068 67.7763 13.7614C68.0945 13.2159 68.2536 12.571 68.2536 11.8267L69.0036 11.9375H64.5036V9.15909H71.8075V11.358C71.8075 12.892 71.4837 14.2102 70.8359 15.3125C70.1882 16.4091 69.2962 17.2557 68.1598 17.8523C67.0234 18.4432 65.7223 18.7386 64.2564 18.7386C62.62 18.7386 61.1825 18.3778 59.9439 17.6562C58.7053 16.929 57.7393 15.8977 57.0462 14.5625C56.3587 13.2216 56.0149 11.6307 56.0149 9.78977C56.0149 8.375 56.2195 7.11364 56.6286 6.00568C57.0433 4.89205 57.6229 3.94886 58.3672 3.17614C59.1115 2.40341 59.978 1.81534 60.9666 1.41193C61.9553 1.00852 63.0263 0.806818 64.1797 0.806818C65.1683 0.806818 66.0888 0.951704 66.9411 1.24148C67.7933 1.52557 68.549 1.92898 69.2081 2.4517C69.8729 2.97443 70.4155 3.59659 70.8359 4.31818C71.2564 5.03409 71.5263 5.82386 71.6456 6.6875H67.8956ZM90.6193 9.77273C90.6193 11.6761 90.2585 13.2955 89.5369 14.6307C88.821 15.9659 87.8438 16.9858 86.6051 17.6903C85.3722 18.3892 83.9858 18.7386 82.446 18.7386C80.8949 18.7386 79.5028 18.3864 78.2699 17.6818C77.0369 16.9773 76.0625 15.9574 75.3466 14.6222C74.6307 13.2869 74.2727 11.6705 74.2727 9.77273C74.2727 7.86932 74.6307 6.25 75.3466 4.91477C76.0625 3.57955 77.0369 2.5625 78.2699 1.86364C79.5028 1.15909 80.8949 0.806818 82.446 0.806818C83.9858 0.806818 85.3722 1.15909 86.6051 1.86364C87.8438 2.5625 88.821 3.57955 89.5369 4.91477C90.2585 6.25 90.6193 7.86932 90.6193 9.77273ZM86.8778 9.77273C86.8778 8.53977 86.6932 7.5 86.3239 6.65341C85.9602 5.80682 85.446 5.16477 84.7812 4.72727C84.1165 4.28977 83.3381 4.07102 82.446 4.07102C81.554 4.07102 80.7756 4.28977 80.1108 4.72727C79.446 5.16477 78.929 5.80682 78.5597 6.65341C78.196 7.5 78.0142 8.53977 78.0142 9.77273C78.0142 11.0057 78.196 12.0455 78.5597 12.892C78.929 13.7386 79.446 14.3807 80.1108 14.8182C80.7756 15.2557 81.554 15.4744 82.446 15.4744C83.3381 15.4744 84.1165 15.2557 84.7812 14.8182C85.446 14.3807 85.9602 13.7386 86.3239 12.892C86.6932 12.0455 86.8778 11.0057 86.8778 9.77273ZM98.9077 1.04545H103.459L108.266 12.7727H108.47L113.277 1.04545H117.828V18.5H114.249V7.1392H114.104L109.587 18.4148H107.149L102.632 7.09659H102.487V18.5H98.9077V1.04545ZM136.908 9.77273C136.908 11.6761 136.548 13.2955 135.826 14.6307C135.11 15.9659 134.133 16.9858 132.894 17.6903C131.661 18.3892 130.275 18.7386 128.735 18.7386C127.184 18.7386 125.792 18.3864 124.559 17.6818C123.326 16.9773 122.352 15.9574 121.636 14.6222C120.92 13.2869 120.562 11.6705 120.562 9.77273C120.562 7.86932 120.92 6.25 121.636 4.91477C122.352 3.57955 123.326 2.5625 124.559 1.86364C125.792 1.15909 127.184 0.806818 128.735 0.806818C130.275 0.806818 131.661 1.15909 132.894 1.86364C134.133 2.5625 135.11 3.57955 135.826 4.91477C136.548 6.25 136.908 7.86932 136.908 9.77273ZM133.167 9.77273C133.167 8.53977 132.982 7.5 132.613 6.65341C132.249 5.80682 131.735 5.16477 131.07 4.72727C130.406 4.28977 129.627 4.07102 128.735 4.07102C127.843 4.07102 127.065 4.28977 126.4 4.72727C125.735 5.16477 125.218 5.80682 124.849 6.65341C124.485 7.5 124.303 8.53977 124.303 9.77273C124.303 11.0057 124.485 12.0455 124.849 12.892C125.218 13.7386 125.735 14.3807 126.4 14.8182C127.065 15.2557 127.843 15.4744 128.735 15.4744C129.627 15.4744 130.406 15.2557 131.07 14.8182C131.735 14.3807 132.249 13.7386 132.613 12.892C132.982 12.0455 133.167 11.0057 133.167 9.77273ZM141.811 1.04545L146.03 14.3068H146.192L150.419 1.04545H154.51L148.493 18.5H143.737L137.712 1.04545H141.811ZM160.301 1.04545V18.5H156.611V1.04545H160.301ZM163.337 18.5V1.04545H175.099V4.08807H167.028V8.24716H174.494V11.2898H167.028V15.4574H175.133V18.5H163.337Z" fill="white"/>
</svg>
